<svg width="93" height="31" viewBox="0 0 93 31" fill="none" xmlns="http://www.w3.org/2000/svg">
<path d="M22.0781 27H25.5781V17.5625H35.2656V14.6094H25.5781V7.46875H36.1562V4.45312H22.0781V27ZM38.7969 27H42.1719V17.2031C42.1719 14.75 43.5156 13.3281 45.6875 13.3281C46.3438 13.3281 46.9375 13.4062 47.2031 13.5156V10.375C46.9375 10.3281 46.5156 10.25 46.0312 10.25C44.1562 10.25 42.7812 11.4531 42.25 13.375H42.1719V10.5625H38.7969V27ZM55.6406 27.3281C60.3438 27.3281 63.4375 24.0781 63.4375 18.7812V18.75C63.4375 13.4844 60.3125 10.25 55.625 10.25C50.9531 10.25 47.8438 13.5 47.8438 18.75V18.7812C47.8438 24.0625 50.9219 27.3281 55.6406 27.3281ZM55.6562 24.5C53.0156 24.5 51.2969 22.4219 51.2969 18.7812V18.75C51.2969 15.1562 53.0312 13.0781 55.625 13.0781C58.2656 13.0781 59.9844 15.1562 59.9844 18.75V18.7812C59.9844 22.4062 58.2969 24.5 55.6562 24.5ZM66.0469 27H69.4219V17.4219C69.4219 14.8594 70.9531 13.1406 73.3281 13.1406C75.6719 13.1406 76.8281 14.5312 76.8281 17V27H80.2188V16.3594C80.2188 12.5781 78.1406 10.25 74.5312 10.25C72.0469 10.25 70.3594 11.375 69.5 13.0469H69.4219V10.5625H66.0469V27ZM89.25 27.3281C89.9375 27.3281 90.5781 27.25 90.9688 27.1875V24.5781C90.7188 24.6094 90.4219 24.6406 90.0625 24.6406C88.6406 24.6406 87.8906 24.1406 87.8906 22.4688V13.25H90.9688V10.5625H87.8906V6.28125H84.4375V10.5625H82.0781V13.25H84.4375V22.6719C84.4375 25.9531 86 27.3281 89.25 27.3281Z" fill="white"/>
<path d="M7.49477 12.8306C6.81514 13.0578 6.46415 13.2733 5.99619 13.8297C5.47848 14.4452 5.40419 15.7149 5.40419 15.7149C5.40419 15.7149 5.23768 18.712 5.40419 21.5426C5.46384 22.5566 5.90372 23.7072 7.5688 23.8738C9.941 24.111 15.3947 23.7072 15.3947 23.7072V25.0393V26.3714C15.3947 26.3714 10.5659 26.8709 7.40229 26.7044C6.06361 26.6339 4.93546 26.397 3.90562 25.5388C2.90653 24.7063 2.57351 24.2068 2.40701 23.5407C2.19894 22.7085 2.17975 22.555 2.0775 21.737L2.07402 21.7091C1.90748 20.3771 2.07401 18.8785 2.07402 17.5464C2.07402 16.2144 2.40705 13.8833 2.40705 13.8833C2.40705 13.8833 2.64707 12.8065 2.90657 12.3847C3.12475 12.0301 3.5726 11.5521 3.5726 11.5521C3.5726 11.5521 4.29096 10.5739 6.23673 10.2201C8.06832 9.88706 10.6405 9.96907 12.3975 10.2201C13.5631 10.3866 14.5268 11.3573 14.8952 11.8852C15.4484 12.6779 15.7277 14.2163 15.7277 14.2163C15.7277 14.2163 15.8386 14.8237 15.8942 15.2153C16.1323 16.8904 15.8942 19.5445 15.8942 19.5445L12.564 19.5445L12.7306 17.713C12.7306 17.713 12.8971 16.2144 12.7306 15.0488C12.6335 14.3692 11.9469 13.4733 11.565 13.2172C10.8969 12.7694 10.2929 12.7564 9.5669 12.7177C8.785 12.676 8.2374 12.5824 7.49477 12.8306Z" fill="#884FFE" stroke="#884FFE" stroke-width="0.5"/>
<g filter="url(#filter0_b_179485_4092)">
<path d="M4.76969 22.5959L14.3615 20.2044C14.7366 20.1109 14.9649 19.731 14.8714 19.3558L14.4517 17.6725C14.3582 17.2974 13.9782 17.0691 13.6031 17.1627L4.0113 19.5542C3.63618 19.6477 3.40791 20.0276 3.50144 20.4027L3.92114 22.086C4.01466 22.4612 4.39457 22.6894 4.76969 22.5959Z" fill="white" fill-opacity="0.75"/>
</g>
<defs>
<filter id="filter0_b_179485_4092" x="-0.519531" y="13.1417" width="19.4119" height="13.4752" filterUnits="userSpaceOnUse" color-interpolation-filters="sRGB">
<feFlood flood-opacity="0" result="BackgroundImageFix"/>
<feGaussianBlur in="BackgroundImageFix" stdDeviation="2"/>
<feComposite in2="SourceAlpha" operator="in" result="effect1_backgroundBlur_179485_4092"/>
<feBlend mode="normal" in="SourceGraphic" in2="effect1_backgroundBlur_179485_4092" result="shape"/>
</filter>
</defs>
</svg>
